<svg width="1116" height="341" viewBox="0 0 1116 341" fill="none" xmlns="http://www.w3.org/2000/svg">
<path d="M83 339.641C83 339.641 87.7348 308.655 148.089 300.324C208.443 291.993 264.542 225.166 364.033 234.876C463.525 244.585 546.115 305.479 659.391 286.779C772.667 268.139 843.57 291.873 868.982 310.633C894.394 329.392 999.52 306.258 1007.31 340.6L83 339.641Z" fill="#A8D29F"/>
<path d="M1110.94 340.604H1017.5C1012.47 336.349 1020.98 326.699 1029.79 326.04C1033.63 325.74 1038.48 326.579 1044.05 327.718C1045.31 310.637 1052.68 233.86 1080.37 236.977C1111.48 240.453 1080.37 270.78 1071.56 288.761C1065.03 302.066 1058.2 321.185 1055.02 330.175C1057.54 330.715 1060.18 331.254 1062.81 331.734C1066.95 319.087 1082.29 276.474 1101.77 278.991C1124.67 281.868 1115.5 298.949 1099.25 309.078C1087.33 316.51 1072.7 327.119 1065.75 332.273C1071.62 333.232 1077.8 333.891 1084.03 333.711C1100.09 333.352 1107.88 338.027 1110.94 340.604Z" fill="#A8D29F"/>
<path d="M210.84 297.327C210.84 297.327 163.791 176.918 130.827 196.097C97.8629 215.216 210.84 297.327 210.84 297.327Z" fill="#A8D29F"/>
<path d="M187.645 297.328C187.645 297.328 125.492 243.627 97.1433 253.636C68.7343 263.585 187.645 297.328 187.645 297.328Z" fill="#A8D29F"/>
<g clip-path="url(#clip0)">
<path d="M270.232 192.988C270.232 192.988 241.3 165.289 268.472 147.696C268.472 147.696 288.329 137.861 304.5 138.628C304.5 138.628 281.563 170.161 288.989 173.319C296.414 176.477 311.43 136.643 311.43 136.643C311.43 136.643 356.588 133.034 371.109 138.764C371.109 138.764 332.496 164.658 340.637 166.237C348.777 167.771 390.47 142.327 390.47 142.327C390.47 142.327 432.493 148.192 430.293 169.214C428.038 190.236 413.572 196.732 407.191 196.191C400.811 195.65 363.573 183.966 362.748 188.251C361.923 192.537 384.365 206.522 400.041 207.153C400.041 207.153 370.394 233.95 350.703 226.235C331.011 218.476 329.306 206.251 317.04 201.649C304.775 197.048 294.269 197.048 299.329 201.74C304.39 206.431 326.611 210.988 333.651 221.183C340.692 231.378 346.962 238.235 326.611 235.709C306.205 233.183 273.093 220.957 271.662 206.973C270.232 192.988 270.232 192.988 270.232 192.988Z" fill="#599DAD"/>
<path d="M409.611 169.799C409.611 169.799 295.424 166.19 270.232 192.987C270.232 192.987 264.677 206.701 247.515 219.152L244.82 225.151C244.82 225.151 264.622 208.054 271.662 207.016C271.662 207.016 260.606 173.814 409.611 169.799Z" fill="#599DAD"/>
<path d="M247.461 219.152C247.461 219.152 222.93 234.039 221.225 260.565L225.68 260.88C225.68 260.88 233.49 233.407 247.681 222.671C261.817 211.979 247.461 219.152 247.461 219.152Z" fill="#599DAD"/>
<path d="M165.113 148.386C165.113 148.386 198.386 127.112 182.883 98.2622C182.883 98.2622 170.44 80.5262 157.122 75.9901C157.122 75.9901 164.238 119.037 157.122 120.035C150.007 121.033 152.233 71.4087 152.233 71.4087C152.233 71.4087 117.171 52.1757 103.416 53.6726C103.416 53.6726 125.161 95.722 118.045 94.6787C110.929 93.6808 86.5208 51.1324 86.5208 51.1324C86.5208 51.1324 50.5839 43.5118 44.8197 67.8252C39.0555 92.1385 48.3577 104.295 53.6847 105.837C59.0116 107.334 93.1993 106.835 92.285 111.916C91.4104 116.996 68.3138 125.07 55.4338 120.534C55.4338 120.534 69.6257 160.542 88.2699 158.501C106.914 156.46 112.678 143.305 124.247 142.307C135.775 141.31 144.203 144.848 138.438 148.386C132.674 151.924 113.155 149.565 103.813 158.592C94.5112 167.619 86.9581 173.198 104.251 177.281C121.543 181.318 152.63 178.823 158.832 163.627C165.033 148.431 165.113 148.386 165.113 148.386Z" fill="#6BB7BF"/>
<path d="M156.893 184.928C156.893 184.928 176.804 209.695 165.419 239.874L160.303 238.747C160.303 238.747 165.254 205.544 154.858 188.808C144.517 172.117 156.893 184.928 156.893 184.928Z" fill="#6BB7BF"/>
<path d="M242.237 128.974C242.237 128.974 181.513 101.095 209.84 63.246C209.84 63.246 232.502 40.0135 256.813 34.0136C256.813 34.0136 243.832 90.4484 256.813 91.8018C269.794 93.11 265.724 28.0589 265.724 28.0589C265.724 28.0589 329.693 2.79626 354.774 4.78118C354.774 4.78118 315.117 59.9078 328.043 58.5544C341.024 57.2462 385.576 1.48802 385.576 1.48802C385.576 1.48802 451.141 -8.48168 461.701 23.4123C472.207 55.3064 455.211 71.2308 445.53 73.2157C435.795 75.2007 373.476 74.524 375.071 81.2005C376.666 87.832 418.799 98.4783 442.285 92.4785C442.285 92.4785 416.378 144.943 382.386 142.282C348.394 139.62 337.833 122.342 316.822 121.034C295.756 119.726 280.41 124.372 290.915 129.019C301.421 133.666 337.063 130.553 354.059 142.417C371.055 154.282 384.806 161.59 353.234 166.868C321.662 172.191 265.009 168.853 253.623 148.958C242.237 128.974 242.237 128.974 242.237 128.974Z" fill="#86D1CD"/>
<path d="M431.724 33.3374C431.724 33.3374 261.708 78.4943 242.292 128.974C242.292 128.974 243.117 151.53 226.121 177.47V187.439C226.121 187.439 243.942 153.56 253.623 148.914C253.568 148.869 215.56 105.065 431.724 33.3374Z" fill="#6BB7BF"/>
<path d="M226.066 177.424C226.066 177.424 199.829 210.085 214.79 249.828L221.556 248.34C221.556 248.34 215.01 204.536 228.706 182.522C242.402 160.552 226.066 177.424 226.066 177.424Z" fill="#6BB7BF"/>
</g>
<defs>
<clipPath id="clip0">
<rect width="465" height="341" fill="white"/>
</clipPath>
</defs>
</svg>
