<svg width="158" height="139" viewBox="0 0 158 139" fill="none" xmlns="http://www.w3.org/2000/svg">
<g filter="url(#filter0_d)">
<path fill-rule="evenodd" clip-rule="evenodd" d="M110 69.5C110 77.7217 106.734 85.6067 100.92 91.4203C95.1067 97.2339 87.2217 100.5 79 100.5C70.7783 100.5 62.8933 97.2339 57.0797 91.4203C51.2661 85.6067 48 77.7217 48 69.5C48 61.2783 51.2661 53.3933 57.0797 47.5797C62.8933 41.7661 70.7783 38.5 79 38.5C87.2217 38.5 95.1067 41.7661 100.92 47.5797C106.734 53.3933 110 61.2783 110 69.5Z" fill="white"/>
</g>
<g filter="url(#filter1_d)">
<path fill-rule="evenodd" clip-rule="evenodd" d="M103 69.5C103 75.8652 100.471 81.9697 95.9706 86.4706C91.4697 90.9714 85.3652 93.5 79 93.5C72.6348 93.5 66.5303 90.9714 62.0294 86.4706C57.5286 81.9697 55 75.8652 55 69.5C55 63.1348 57.5286 57.0303 62.0294 52.5294C66.5303 48.0286 72.6348 45.5 79 45.5C85.3652 45.5 91.4697 48.0286 95.9706 52.5294C100.471 57.0303 103 63.1348 103 69.5Z" fill="#66B851"/>
</g>
<path d="M92.3791 58.6827C92.7015 58.8098 92.9945 58.9996 93.2406 59.2406H93.244C93.7221 59.7108 93.9934 60.3465 93.9999 61.0112C94.0063 61.6758 93.7473 62.3165 93.2785 62.7956L79.5261 79.6902C79.2897 79.9399 79.0047 80.1402 78.6879 80.2793C78.3711 80.4183 78.029 80.4932 77.6821 80.4996C77.3352 80.5059 76.9906 80.4435 76.6687 80.316C76.3469 80.1886 76.0545 79.9988 75.8089 79.7579L66.6934 70.796C66.2371 70.3146 65.9886 69.6779 66.0004 69.0201C66.0122 68.3623 66.2834 67.7346 66.7568 67.2694C67.2301 66.8041 67.8688 66.5376 68.5382 66.526C69.2075 66.5144 69.8554 66.7586 70.3451 67.2071L77.5555 74.2968L89.52 59.3151C89.7559 59.0644 90.0408 58.8631 90.3576 58.7232C90.6745 58.5832 91.0168 58.5075 91.3642 58.5005C91.7115 58.4936 92.0567 58.5555 92.3791 58.6827Z" fill="white"/>
<g clip-path="url(#clip0)">
<path fill-rule="evenodd" clip-rule="evenodd" d="M40.7687 47.2893L36.6012 48.0655L34.8497 51.8868L32.7962 48.2446L28.5684 47.8267L31.5278 44.7219L30.6219 40.6617L34.4269 42.4529L38.1112 40.3035L37.5676 44.483L40.7687 47.2893Z" fill="#F2C94C"/>
<path fill-rule="evenodd" clip-rule="evenodd" d="M107.508 13.7931L108.957 11.5839L107.931 9.13588L110.467 9.79267L112.521 8.12085L112.642 10.748L114.937 12.0616L112.46 13.0169L111.856 15.5843L110.165 13.5543L107.508 13.7931Z" fill="#FF4150"/>
<path fill-rule="evenodd" clip-rule="evenodd" d="M147.25 74.0383L143.868 73.9189L141.875 76.546L140.969 73.3815L137.768 72.3068L140.546 70.4558L140.606 67.1719L143.264 69.2019L146.465 68.1869L145.317 71.2917L147.25 74.0383Z" fill="#FF4150"/>
<path fill-rule="evenodd" clip-rule="evenodd" d="M22.5883 106.161L18.6625 105.325L15.703 108.132L15.2802 104.131L11.7168 102.221L15.401 100.608L16.1258 96.6677L18.8437 99.6531L22.8903 99.1158L20.8368 102.579L22.5883 106.161Z" fill="#F2C94C"/>
<path fill-rule="evenodd" clip-rule="evenodd" d="M146.042 123.596L143.082 123.775L141.572 126.283L140.485 123.596L137.586 122.939L139.881 121.088L139.579 118.162L142.116 119.715L144.834 118.58L144.109 121.387L146.042 123.596Z" fill="#FF4150"/>
<path fill-rule="evenodd" clip-rule="evenodd" d="M50.1319 130.164L46.7496 129.029L43.9109 131.119L43.9713 127.597L41.0723 125.566L44.4545 124.551L45.4813 121.208L47.5348 124.074L51.0982 124.014L48.9843 126.82L50.1319 130.164Z" fill="#60BC4B"/>
<path fill-rule="evenodd" clip-rule="evenodd" d="M42.459 14.4485L44.8145 12.0602L44.1501 8.77629L47.17 10.2093L50.1295 8.59717L49.6463 11.8811L52.1226 14.15L48.8007 14.7471L47.4116 17.7922L45.8412 14.8068L42.459 14.4485Z" fill="#FF4150"/>
<path fill-rule="evenodd" clip-rule="evenodd" d="M8.57689 69.6199L5.9194 69.9184L4.65105 72.247L3.56389 69.799L0.966797 69.381L2.89952 67.5898L2.53713 64.9626L4.89264 66.2762L7.24814 65.1418L6.70457 67.7092L8.57689 69.6199Z" fill="#FF4150"/>
<path fill-rule="evenodd" clip-rule="evenodd" d="M141.934 25.7938L143.685 23.7041L142.9 21.0769L145.437 22.0322L147.732 20.5396L147.551 23.2264L149.725 24.8982L147.067 25.6147L146.161 28.1822L144.651 25.8536L141.934 25.7938Z" fill="#F2C94C"/>
<path fill-rule="evenodd" clip-rule="evenodd" d="M114.695 50.8718L116.568 48.4835L115.601 45.6175L118.5 46.5728L120.916 44.8413L120.856 47.8267L123.332 49.6179L120.433 50.4539L119.527 53.3198L117.776 50.8718H114.695Z" fill="#60BC4B"/>
<path fill-rule="evenodd" clip-rule="evenodd" d="M138.008 102.459L132.995 102.638L130.337 106.758L128.646 102.161L123.814 100.907L127.74 97.8616L127.438 92.9656L131.545 95.7121L136.196 93.9209L134.807 98.6378L138.008 102.459Z" fill="#F2C94C"/>
<path fill-rule="evenodd" clip-rule="evenodd" d="M13.7119 29.3174H12.202L11.296 30.5713L10.8128 29.1383L9.36328 28.7203L10.6316 27.8247L10.5712 26.332L11.8396 27.2277L13.2287 26.6903L12.8059 28.1233L13.7119 29.3174Z" fill="#F2C94C"/>
<path fill-rule="evenodd" clip-rule="evenodd" d="M153.773 87.5319L154.679 86.3974L154.317 85.0241L155.706 85.5615L156.914 84.7256L156.854 86.2183L158.001 87.1139L156.552 87.4721L156.008 88.8454L155.223 87.5916L153.773 87.5319Z" fill="#FF4150"/>
<path fill-rule="evenodd" clip-rule="evenodd" d="M86.9742 15.3458L85.4643 15.0472L84.4375 16.122L84.1959 14.6293L82.8672 13.9725L84.2563 13.3157L84.4979 11.823L85.5247 12.8977L87.0346 12.7186L86.3099 14.0322L86.9742 15.3458Z" fill="#F2C94C"/>
<path fill-rule="evenodd" clip-rule="evenodd" d="M53.6324 108.549L52.1829 108.25L51.0957 109.325L50.8541 107.832L49.5254 107.116L50.9145 106.519L51.1561 105.026L52.1829 106.101L53.6928 105.862L52.9681 107.176L53.6324 108.549Z" fill="#FF4150"/>
<path fill-rule="evenodd" clip-rule="evenodd" d="M102.495 104.728L103.16 103.056L102.193 101.504L104.005 101.683L105.153 100.25L105.576 101.981L107.267 102.638L105.757 103.593L105.636 105.385L104.247 104.25L102.495 104.728Z" fill="#FF4150"/>
<path fill-rule="evenodd" clip-rule="evenodd" d="M118.5 27.1079L117.654 27.1676L117.232 27.8244L116.93 27.1079L116.145 26.9288L116.749 26.3914L116.688 25.6152L117.352 26.0332L118.138 25.6749L117.956 26.4511L118.5 27.1079Z" fill="#FF4150"/>
<path fill-rule="evenodd" clip-rule="evenodd" d="M26.273 74.9332L26.3938 73.5002L25.3066 72.6046L26.6958 72.306L27.2394 70.9924L27.9641 72.1866L29.4137 72.306L28.4473 73.3808L28.7493 74.754L27.4809 74.157L26.273 74.9332Z" fill="#FF4150"/>
<path fill-rule="evenodd" clip-rule="evenodd" d="M88.7855 120.552L86.8528 120.492L85.7053 121.985L85.2221 120.134L83.4102 119.537L84.9805 118.521L85.0409 116.611L86.4904 117.805L88.3024 117.268L87.6984 118.999L88.7855 120.552Z" fill="#F2C94C"/>
<path d="M24.6432 35.407C24.6432 35.7653 24.3412 36.0638 23.9788 36.0638C23.6164 36.0638 23.3145 35.7653 23.3145 35.407C23.3145 35.0488 23.6164 34.7502 23.9788 34.7502C24.3412 34.7502 24.6432 35.0488 24.6432 35.407Z" fill="#3D3D3D"/>
<path d="M64.3842 7.52299C64.9512 7.52299 65.4109 7.06854 65.4109 6.50795C65.4109 5.94737 64.9512 5.49292 64.3842 5.49292C63.8171 5.49292 63.3574 5.94737 63.3574 6.50795C63.3574 7.06854 63.8171 7.52299 64.3842 7.52299Z" fill="#3D3D3D"/>
<path d="M88.0606 22.9272C88.4942 22.9272 88.8457 22.5796 88.8457 22.151C88.8457 21.7223 88.4942 21.3748 88.0606 21.3748C87.6269 21.3748 87.2754 21.7223 87.2754 22.151C87.2754 22.5796 87.6269 22.9272 88.0606 22.9272Z" fill="#3D3D3D"/>
<path d="M134.385 31.5247C134.385 32.1815 133.841 32.7189 133.177 32.7189C132.512 32.7189 131.969 32.1815 131.969 31.5247C131.969 30.8679 132.512 30.3306 133.177 30.3306C133.841 30.3306 134.385 30.8679 134.385 31.5247Z" fill="#3D3D3D"/>
<path d="M114.212 35.8251C114.212 36.1236 113.97 36.4222 113.608 36.4222C113.245 36.4222 113.004 36.1834 113.004 35.8251C113.004 35.5266 113.245 35.228 113.608 35.228C113.97 35.228 114.212 35.5266 114.212 35.8251Z" fill="#3D3D3D"/>
<path d="M148.276 59.2311C148.276 59.8282 147.793 60.3059 147.189 60.3059C146.585 60.3059 146.102 59.8282 146.102 59.2311C146.102 58.6341 146.585 58.1564 147.189 58.1564C147.793 58.0967 148.276 58.5744 148.276 59.2311Z" fill="#66B851"/>
<path d="M153.771 76.3066C153.771 76.5455 153.59 76.7246 153.349 76.7246C153.107 76.7246 152.926 76.5455 152.926 76.3066C152.926 76.0678 153.107 75.8887 153.349 75.8887C153.59 75.8887 153.771 76.0678 153.771 76.3066Z" fill="#3D3D3D"/>
<path d="M129.915 76.7841C129.915 77.0826 129.673 77.3812 129.311 77.3812C129.009 77.3812 128.707 77.1423 128.707 76.7841C128.707 76.4856 128.949 76.187 129.311 76.187C129.673 76.2467 129.915 76.4856 129.915 76.7841Z" fill="#3D3D3D"/>
<path d="M120.977 89.8C121.41 89.8 121.762 89.4525 121.762 89.0238C121.762 88.5951 121.41 88.2476 120.977 88.2476C120.543 88.2476 120.191 88.5951 120.191 89.0238C120.191 89.4525 120.543 89.8 120.977 89.8Z" fill="#3D3D3D"/>
<path d="M123.634 110.222C124.201 110.222 124.661 109.767 124.661 109.207C124.661 108.646 124.201 108.192 123.634 108.192C123.067 108.192 122.607 108.646 122.607 109.207C122.607 109.767 123.067 110.222 123.634 110.222Z" fill="#66B851"/>
<path d="M147.913 106.101C147.913 106.4 147.671 106.699 147.309 106.699C147.007 106.699 146.705 106.46 146.705 106.101C146.705 105.803 146.947 105.504 147.309 105.504C147.671 105.504 147.913 105.743 147.913 106.101Z" fill="#3D3D3D"/>
<path d="M132.029 121.386C132.029 121.864 131.667 122.222 131.183 122.222C130.7 122.222 130.338 121.864 130.338 121.386C130.338 120.908 130.7 120.55 131.183 120.55C131.606 120.55 132.029 120.968 132.029 121.386Z" fill="#3D3D3D"/>
<path d="M108.717 125.029C108.717 125.447 108.354 125.805 107.932 125.805C107.509 125.805 107.146 125.447 107.146 125.029C107.146 124.611 107.509 124.252 107.932 124.252C108.354 124.252 108.717 124.611 108.717 125.029Z" fill="#3D3D3D"/>
<path d="M110.104 107.296C110.104 107.595 109.863 107.893 109.5 107.893C109.198 107.893 108.896 107.654 108.896 107.296C108.896 106.998 109.138 106.699 109.5 106.699C109.802 106.699 110.104 106.938 110.104 107.296Z" fill="#3D3D3D"/>
<path d="M76.2832 118.878C76.7169 118.878 77.0684 118.531 77.0684 118.102C77.0684 117.673 76.7169 117.326 76.2832 117.326C75.8496 117.326 75.498 117.673 75.498 118.102C75.498 118.531 75.8496 118.878 76.2832 118.878Z" fill="#3D3D3D"/>
<path d="M88.1809 130.522C88.1809 130.821 87.9393 131.059 87.6373 131.059C87.3353 131.059 87.0938 130.821 87.0938 130.522C87.0938 130.223 87.3353 129.985 87.6373 129.985C87.9393 130.044 88.1809 130.283 88.1809 130.522Z" fill="#3D3D3D"/>
<path d="M41.4926 109.743C41.8262 109.743 42.0966 109.476 42.0966 109.146C42.0966 108.816 41.8262 108.549 41.4926 108.549C41.1591 108.549 40.8887 108.816 40.8887 109.146C40.8887 109.476 41.1591 109.743 41.4926 109.743Z" fill="#3D3D3D"/>
<path d="M62.5128 131.476C62.5128 132.014 62.09 132.432 61.5464 132.432C61.0029 132.432 60.5801 132.014 60.5801 131.476C60.5801 130.939 61.0029 130.521 61.5464 130.521C62.09 130.521 62.5128 130.939 62.5128 131.476Z" fill="#3D3D3D"/>
<path d="M61.3027 106.16C61.3027 106.638 61.6651 106.996 62.1483 106.996C62.6315 106.996 62.9939 106.638 62.9939 106.16C62.9939 105.683 62.6315 105.324 62.1483 105.324C61.6651 105.324 61.3027 105.683 61.3027 106.16Z" fill="#3D3D3D"/>
<path d="M24.4608 113.266C24.4608 113.923 23.9172 114.46 23.2529 114.46C22.5885 114.46 22.0449 113.923 22.0449 113.266C22.0449 112.609 22.5885 112.072 23.2529 112.072C23.9172 112.072 24.4608 112.609 24.4608 113.266Z" fill="#3D3D3D"/>
<path d="M21.3815 87.8899C21.3815 88.2482 21.0795 88.5467 20.7171 88.5467C20.3547 88.5467 20.0527 88.2482 20.0527 87.8899C20.0527 87.5317 20.3547 87.2332 20.7171 87.2332C21.0795 87.2332 21.3815 87.5317 21.3815 87.8899Z" fill="#3D3D3D"/>
<path d="M30.3794 94.5174C30.7129 94.5174 30.9833 94.2501 30.9833 93.9203C30.9833 93.5906 30.7129 93.3232 30.3794 93.3232C30.0458 93.3232 29.7754 93.5906 29.7754 93.9203C29.7754 94.2501 30.0458 94.5174 30.3794 94.5174Z" fill="#3D3D3D"/>
<path d="M14.9171 75.9482C14.9171 76.4856 14.4943 76.9036 13.9507 76.9036C13.4072 76.9036 12.9844 76.4856 12.9844 75.9482C12.9844 75.4109 13.4072 74.9929 13.9507 74.9929C14.4943 75.0526 14.9171 75.4706 14.9171 75.9482Z" fill="#3D3D3D"/>
<path d="M13.1666 59.3501C13.4668 59.3501 13.7102 59.1095 13.7102 58.8128C13.7102 58.516 13.4668 58.2754 13.1666 58.2754C12.8664 58.2754 12.623 58.516 12.623 58.8128C12.623 59.1095 12.8664 59.3501 13.1666 59.3501Z" fill="#3D3D3D"/>
<path d="M26.6348 69.1423C27.0684 69.1423 27.42 68.7947 27.42 68.366C27.42 67.9374 27.0684 67.5898 26.6348 67.5898C26.2011 67.5898 25.8496 67.9374 25.8496 68.366C25.8496 68.7947 26.2011 69.1423 26.6348 69.1423Z" fill="#3D3D3D"/>
<path d="M13.3481 46.1546C13.3481 46.7517 12.865 47.2293 12.261 47.2293C11.657 47.2293 11.1738 46.7517 11.1738 46.1546C11.1738 45.5575 11.657 45.0798 12.261 45.0798C12.865 45.0798 13.3481 45.5575 13.3481 46.1546Z" fill="#66B851"/>
<path d="M38.8349 32.3022C38.8349 32.6007 38.5933 32.8992 38.2309 32.8992C37.9289 32.8992 37.627 32.6604 37.627 32.3022C37.627 32.0036 37.8685 31.7051 38.2309 31.7051C38.5933 31.7051 38.8349 31.9439 38.8349 32.3022Z" fill="#3D3D3D"/>
<path d="M78.7584 33.0782C78.7584 33.4365 78.4564 33.735 78.0941 33.735C77.7317 33.735 77.4297 33.4365 77.4297 33.0782C77.4297 32.72 77.7317 32.4214 78.0941 32.4214C78.4564 32.3617 78.7584 32.6603 78.7584 33.0782Z" fill="#3D3D3D"/>
<path d="M44.0302 21.1359C44.0302 21.4344 43.7886 21.733 43.4262 21.733C43.1243 21.733 42.8223 21.4941 42.8223 21.1359C42.8223 20.7776 43.0639 20.5388 43.4262 20.5388C43.7282 20.5388 44.0302 20.7776 44.0302 21.1359Z" fill="#3D3D3D"/>
<path d="M85.2799 102.936C85.2799 103.294 84.9779 103.593 84.6156 103.593C84.2532 103.593 83.9512 103.294 83.9512 102.936C83.9512 102.578 84.2532 102.279 84.6156 102.279C84.9779 102.279 85.2799 102.578 85.2799 102.936Z" fill="#3D3D3D"/>
<path d="M6.64425 113.026C7.1446 113.026 7.55021 112.625 7.55021 112.131C7.55021 111.636 7.1446 111.235 6.64425 111.235C6.1439 111.235 5.73828 111.636 5.73828 112.131C5.73828 112.625 6.1439 113.026 6.64425 113.026Z" fill="#3D3D3D"/>
<path d="M1.57034 95.1146C1.57034 95.5325 1.20795 95.8908 0.785168 95.8908C0.362385 95.8908 0 95.5325 0 95.1146C0 94.6966 0.362385 94.3384 0.785168 94.3384C1.20795 94.3384 1.57034 94.6966 1.57034 95.1146Z" fill="#66B851"/>
<path d="M19.7514 14.4488C20.3184 14.4488 20.7781 13.9943 20.7781 13.4337C20.7781 12.8731 20.3184 12.4187 19.7514 12.4187C19.1843 12.4187 18.7246 12.8731 18.7246 13.4337C18.7246 13.9943 19.1843 14.4488 19.7514 14.4488Z" fill="#66B851"/>
<path d="M85.8247 2.74656C86.5919 2.74656 87.2138 2.13172 87.2138 1.37328C87.2138 0.614839 86.5919 0 85.8247 0C85.0575 0 84.4355 0.614839 84.4355 1.37328C84.4355 2.13172 85.0575 2.74656 85.8247 2.74656Z" fill="#66B851"/>
<path d="M155.463 38.2734C155.463 38.6914 155.101 39.0496 154.678 39.0496C154.255 39.0496 153.893 38.6914 153.893 38.2734C153.893 37.8555 154.255 37.4972 154.678 37.4972C155.101 37.4375 155.463 37.7958 155.463 38.2734Z" fill="#3D3D3D"/>
<path d="M143.928 91.532C143.928 91.9499 143.565 92.3082 143.143 92.3082C142.72 92.3082 142.357 91.9499 142.357 91.532C142.357 91.114 142.72 90.7558 143.143 90.7558C143.565 90.6961 143.928 91.0543 143.928 91.532Z" fill="#3D3D3D"/>
<path d="M108.654 138.224C108.654 138.642 108.292 139 107.869 139C107.446 139 107.084 138.642 107.084 138.224C107.084 137.806 107.446 137.448 107.869 137.448C108.292 137.448 108.654 137.806 108.654 138.224Z" fill="#3D3D3D"/>
<path d="M86.9727 136.671C86.9727 137.089 86.6103 137.447 86.1875 137.447C85.7647 137.447 85.4023 137.089 85.4023 136.671C85.4023 136.253 85.7647 135.895 86.1875 135.895C86.6103 135.835 86.9727 136.193 86.9727 136.671Z" fill="#3D3D3D"/>
</g>
<defs>
<filter id="filter0_d" x="40" y="30.5" width="78" height="78" filterUnits="userSpaceOnUse" color-interpolation-filters="sRGB">
<feFlood flood-opacity="0" result="BackgroundImageFix"/>
<feColorMatrix in="SourceAlpha" type="matrix" values="0 0 0 0 0 0 0 0 0 0 0 0 0 0 0 0 0 0 127 0" result="hardAlpha"/>
<feOffset/>
<feGaussianBlur stdDeviation="4"/>
<feColorMatrix type="matrix" values="0 0 0 0 0 0 0 0 0 0 0 0 0 0 0 0 0 0 0.25 0"/>
<feBlend mode="normal" in2="BackgroundImageFix" result="effect1_dropShadow"/>
<feBlend mode="normal" in="SourceGraphic" in2="effect1_dropShadow" result="shape"/>
</filter>
<filter id="filter1_d" x="47" y="37.5" width="64" height="64" filterUnits="userSpaceOnUse" color-interpolation-filters="sRGB">
<feFlood flood-opacity="0" result="BackgroundImageFix"/>
<feColorMatrix in="SourceAlpha" type="matrix" values="0 0 0 0 0 0 0 0 0 0 0 0 0 0 0 0 0 0 127 0" result="hardAlpha"/>
<feOffset/>
<feGaussianBlur stdDeviation="4"/>
<feColorMatrix type="matrix" values="0 0 0 0 0 0 0 0 0 0 0 0 0 0 0 0 0 0 0.25 0"/>
<feBlend mode="normal" in2="BackgroundImageFix" result="effect1_dropShadow"/>
<feBlend mode="normal" in="SourceGraphic" in2="effect1_dropShadow" result="shape"/>
</filter>
<clipPath id="clip0">
<rect width="158" height="139" fill="white"/>
</clipPath>
</defs>
</svg>
